{
  "title": "Zootopia (2016) HDCAM NEW SOURCE x264 - Exclusive",
  "uid": 13676885,
  "size": 1733404215,
  "categoryP": "video",
  "categoryS": "movies",
  "magnet": "?xt=urn:btih:26cac3eb6c04f82e1aea843f37953220958a69e4&amp;dn=Zootopia+%282016%29+HDCAM+NEW+SOURCE+x264+-+Exclusive&amp;tr=udp%3A%2F%2Ftracker.leechers-paradise.org%3A6969&amp;tr=udp%3A%2F%2Fzer0day.ch%3A1337&amp;tr=udp%3A%2F%2Fopen.demonii.com%3A1337&amp;tr=udp%3A%2F%2Ftracker.coppersurfer.tk%3A6969&amp;tr=udp%3A%2F%2Fexodus.desync.com%3A6969",
  "seeders": 72,
  "leechers": 3,
  "uploader": "tykoon123",
  "files": 1,
  "time": 1456431964,
  "description": "http://imgh.us/12370858_1022009524529272_3848413103110276642_o.jpg\r\n\r\nSource:\r\nVideo- 1080p HDCAM, new source from Exclusive.\r\nAudio- Unknown\r\n\r\nFormat                                   : Matroska\r\nFormat version                           : Version 4 / Version 2\r\nFile size                                : 1.61 GiB\r\nDuration                                 : 1h 38mn\r\nOverall bit rate                         : 2 346 Kbps\r\nEncoded date                             : UTC 2016-02-24 21:28:49\r\nWriting application                      : mkvmerge v8.8.0 ('Wind at my back') 64bit\r\nWriting library                          : libebml v1.3.3 + libmatroska v1.4.4\r\nDURATION                                 : 01:38:26.720000000\r\n\r\n\r\nVideo\r\nID                                       : 1\r\nFormat                                   : MPEG-4 Visual\r\nFormat profile                           :   \r\nFormat settings, BVOP                    : No\r\nFormat settings, QPel                    : No\r\nFormat settings, GMC                     : No warppoints\r\nFormat settings, Matrix                  : Default (H.263)\r\nCodec ID                                 : V_MS/VFW/FOURCC / DIVX\r\nCodec ID/Info                            : Project Mayo\r\nCodec ID/Hint                            : DivX 4\r\nDuration                                 : 1h 38mn\r\nBit rate                                 : 2 108 Kbps\r\nWidth                                    : 720 pixels\r\nHeight                                   : 352 pixels\r\nDisplay aspect ratio                     : 16:9\r\nFrame rate mode                          : Constant\r\nFrame rate                               : 29.970 fps\r\nColor space                              : YUV\r\nChroma subsampling                       : 4:2:0\r\nBit depth                                : 8 bits\r\nScan type                                : Progressive\r\nCompression mode                         : Lossy\r\nBits/(Pixel*Frame)                       : 0.278\r\nStream size                              : 1.45 GiB (90%)\r\nWriting library                          : Lavc51.40.4\r\nDefault                                  : Yes\r\nForced                                   : No\r\n\r\nAudio\r\nID                                       : 2\r\nFormat                                   : AC-3\r\nFormat/Info                              : Audio Coding 3\r\nMode extension                           : CM (complete main)\r\nFormat settings, Endianness              : Big\r\nCodec ID                                 : A_AC3\r\nDuration                                 : 1h 38mn\r\nBit rate mode                            : Constant\r\nBit rate                                 : 192 Kbps\r\nChannel(s)                               : 2 channels\r\nChannel positions                        : Front: L R\r\nSampling rate                            : 48.0 KHz\r\nBit depth                                : 16 bits\r\nCompression mode                         : Lossy\r\nStream size                              : 135 MiB (8%)\r\nLanguage                                 : English\r\nDefault                                  : Yes\r\nForced                                   : No\r\n\r\nScreens: \nhttp://imgh.us/foto1_7.jpg \nhttp://imgh.us/foto2_2.jpg \nhttp://imgh.us/foto3.jpg",
  "parsed": {
    "xt": "urn:btih:26cac3eb6c04f82e1aea843f37953220958a69e4",
    "dn": "Zootopia (2016) HDCAM NEW SOURCE x264 - Exclusive",
    "tr": [
      "udp://exodus.desync.com:6969",
      "udp://open.demonii.com:1337",
      "udp://tracker.coppersurfer.tk:6969",
      "udp://tracker.leechers-paradise.org:6969",
      "udp://zer0day.ch:1337"
    ],
    "infoHash": "26cac3eb6c04f82e1aea843f37953220958a69e4",
    "infoHashBuffer": {
      "type": "Buffer",
      "data": [
        38,
        202,
        195,
        235,
        108,
        4,
        248,
        46,
        26,
        234,
        132,
        63,
        55,
        149,
        50,
        32,
        149,
        138,
        105,
        228
      ]
    },
    "name": "Zootopia (2016) HDCAM NEW SOURCE x264 - Exclusive",
    "announce": [
      "udp://exodus.desync.com:6969",
      "udp://open.demonii.com:1337",
      "udp://tracker.coppersurfer.tk:6969",
      "udp://tracker.leechers-paradise.org:6969",
      "udp://zer0day.ch:1337"
    ],
    "urlList": []
  },
  "previous": 100,
  "peers": 51,
  "last_updated": "2016-12-26T19:22:34.292Z"
}